<svg width="38" height="92" viewBox="0 0 38 92" fill="none" xmlns="http://www.w3.org/2000/svg">
<path d="M21.4999 3C21.4999 1.61929 20.3807 0.5 18.9999 0.5C17.6192 0.5 16.4999 1.61929 16.4999 3L21.4999 3ZM17.2322 90.7678C18.2085 91.7441 19.7914 91.7441 20.7677 90.7678L36.6776 74.8579C37.6539 73.8816 37.6539 72.2986 36.6776 71.3223C35.7013 70.346 34.1184 70.346 33.1421 71.3223L18.9999 85.4645L4.8578 71.3223C3.88149 70.346 2.29858 70.346 1.32227 71.3223C0.345954 72.2986 0.345954 73.8816 1.32226 74.8579L17.2322 90.7678ZM16.4999 3L16.4999 89L21.4999 89L21.4999 3L16.4999 3Z" fill="black"/>
</svg>
