<svg width="210" height="55" viewBox="0 0 210 55" fill="none" xmlns="http://www.w3.org/2000/svg">
<g filter="url(#filter0_i_5_10)">
<path d="M13.7333 20.8706C13.7333 22.8198 13.4276 24.2722 12.816 25.2277C12.2045 26.1832 11.2299 26.8712 9.89221 27.2916C11.2299 27.712 12.2045 28.4 12.816 29.3555C13.4276 30.311 13.7333 31.7633 13.7333 33.7125V42.8853C13.7333 44.2613 14.0773 45.3123 14.7653 46.0385C15.4914 46.7647 16.5425 47.1278 17.9184 47.1278H18.9504V54.122H15.6252C12.0708 54.122 9.37624 53.243 7.54168 51.4848C5.70712 49.7267 4.78984 47.1851 4.78984 43.86V33.4832C4.78984 32.6042 4.56052 31.9353 4.10188 31.4767C3.68146 31.018 3.06994 30.7887 2.26732 30.7887H0.375432V23.7944H2.26732C3.06994 23.7944 3.68146 23.5651 4.10188 23.1065C4.56052 22.6478 4.78984 21.979 4.78984 21.0999V10.7232C4.78984 7.39807 5.70712 4.85644 7.54168 3.09832C9.37624 1.3402 12.0708 0.461136 15.6252 0.461136H18.9504V7.4554H17.9184C16.5425 7.4554 15.4914 7.81849 14.7653 8.54467C14.0773 9.27085 13.7333 10.3219 13.7333 11.6978V20.8706ZM61.0664 43L61.0091 18.9214L49.1991 38.7576H45.014L33.2614 19.4374V43H24.5472V2.869H32.2294L47.2499 27.8075L62.041 2.869H69.6659L69.7806 43H61.0664ZM93.3477 43.4586C90.099 43.4586 87.1751 42.7898 84.5762 41.4521C82.0154 40.0762 80.0089 38.1843 78.5565 35.7764C77.1042 33.3686 76.378 30.6358 76.378 27.5782C76.378 24.5206 77.1042 21.7879 78.5565 19.38C80.0089 16.9722 82.0154 15.0994 84.5762 13.7617C87.1751 12.3858 90.099 11.6978 93.3477 11.6978C96.5964 11.6978 99.5011 12.3858 102.062 13.7617C104.623 15.0994 106.629 16.9722 108.081 19.38C109.534 21.7879 110.26 24.5206 110.26 27.5782C110.26 30.6358 109.534 33.3686 108.081 35.7764C106.629 38.1843 104.623 40.0762 102.062 41.4521C99.5011 42.7898 96.5964 43.4586 93.3477 43.4586ZM93.3477 36.1204C95.6409 36.1204 97.5137 35.356 98.966 33.8272C100.457 32.2602 101.202 30.1772 101.202 27.5782C101.202 24.9793 100.457 22.9154 98.966 21.3866C97.5137 19.8196 95.6409 19.0361 93.3477 19.0361C91.0545 19.0361 89.1626 19.8196 87.672 21.3866C86.1814 22.9154 85.4361 24.9793 85.4361 27.5782C85.4361 30.1772 86.1814 32.2602 87.672 33.8272C89.1626 35.356 91.0545 36.1204 93.3477 36.1204ZM116.238 0.461136H125.182V43H116.238V0.461136ZM155.615 41.5094C154.736 42.1592 153.646 42.656 152.347 43C151.086 43.3058 149.748 43.4586 148.334 43.4586C144.665 43.4586 141.817 42.5222 139.792 40.6495C137.804 38.7767 136.811 36.0248 136.811 32.3939V19.724H132.052V12.8444H136.811V5.33419H145.754V12.8444H153.436V19.724H145.754V32.2793C145.754 33.5788 146.079 34.5916 146.729 35.3178C147.417 36.0057 148.372 36.3497 149.595 36.3497C151.009 36.3497 152.213 35.9675 153.207 35.2031L155.615 41.5094ZM190.69 12.1565L176.758 44.8919C175.344 48.4464 173.586 50.9498 171.484 52.4021C169.42 53.8545 166.917 54.5807 163.974 54.5807C162.369 54.5807 160.782 54.3322 159.215 53.8354C157.648 53.3385 156.368 52.6506 155.374 51.7715L158.642 45.4079C159.33 46.0194 160.114 46.4971 160.993 46.8411C161.91 47.1851 162.808 47.3571 163.687 47.3571C164.91 47.3571 165.904 47.0513 166.668 46.4398C167.433 45.8665 168.121 44.8919 168.732 43.516L168.847 43.2293L155.489 12.1565H164.719L173.376 33.0819L182.09 12.1565H190.69ZM209.646 23.7944V30.7887H207.754C206.952 30.7887 206.321 31.018 205.862 31.4767C205.442 31.9353 205.232 32.6042 205.232 33.4832V43.86C205.232 47.1851 204.314 49.7267 202.48 51.4848C200.645 53.243 197.951 54.122 194.396 54.122H191.071V47.1278H192.103C193.479 47.1278 194.511 46.7647 195.199 46.0385C195.925 45.3123 196.288 44.2613 196.288 42.8853V33.7125C196.288 31.7633 196.594 30.311 197.205 29.3555C197.817 28.4 198.792 27.712 200.129 27.2916C198.792 26.8712 197.817 26.1832 197.205 25.2277C196.594 24.2722 196.288 22.8198 196.288 20.8706V11.6978C196.288 10.3219 195.925 9.27085 195.199 8.54467C194.511 7.81849 193.479 7.4554 192.103 7.4554H191.071V0.461136H194.396C197.951 0.461136 200.645 1.3402 202.48 3.09832C204.314 4.85644 205.232 7.39807 205.232 10.7232V21.0999C205.232 21.979 205.442 22.6478 205.862 23.1065C206.321 23.5651 206.952 23.7944 207.754 23.7944H209.646Z" fill="url(#paint0_linear_5_10)"/>
</g>
<defs>
<filter id="filter0_i_5_10" x="0.375427" y="0.461136" width="209.271" height="58.1195" filterUnits="userSpaceOnUse" color-interpolation-filters="sRGB">
<feFlood flood-opacity="0" result="BackgroundImageFix"/>
<feBlend mode="normal" in="SourceGraphic" in2="BackgroundImageFix" result="shape"/>
<feColorMatrix in="SourceAlpha" type="matrix" values="0 0 0 0 0 0 0 0 0 0 0 0 0 0 0 0 0 0 127 0" result="hardAlpha"/>
<feOffset dy="4"/>
<feGaussianBlur stdDeviation="2"/>
<feComposite in2="hardAlpha" operator="arithmetic" k2="-1" k3="1"/>
<feColorMatrix type="matrix" values="0 0 0 0 0 0 0 0 0 0 0 0 0 0 0 0 0 0 0.25 0"/>
<feBlend mode="normal" in2="shape" result="effect1_innerShadow_5_10"/>
</filter>
<linearGradient id="paint0_linear_5_10" x1="-3" y1="-13" x2="38.0583" y2="113.694" gradientUnits="userSpaceOnUse">
<stop stop-color="#FC6F42"/>
<stop offset="0.31773" stop-color="#EC2A20" stop-opacity="0.594056"/>
<stop offset="0.625661" stop-color="#E81616" stop-opacity="0.475622"/>
<stop offset="1" stop-color="#FFB800" stop-opacity="0.69"/>
</linearGradient>
</defs>
</svg>
